riter base.ufo
<glyph name="numbersign" format="1">
  <advance width="657"/>
  <unicode hex="0023"/>
  <outline>
    <contour>
      <point x="298" y="650" type="line"/>
      <point x="299" y="662"/>
      <point x="293" y="667"/>
      <point x="287" y="668" type="curve"/>
      <point x="219" y="674" type="line"/>
      <point x="211" y="675"/>
      <point x="206" y="671"/>
      <point x="205" y="660" type="curve"/>
      <point x="155" y="103" type="line"/>
      <point x="154" y="92"/>
      <point x="158" y="88"/>
      <point x="166" y="87" type="curve"/>
      <point x="234" y="81" type="line"/>
      <point x="240" y="81"/>
      <point x="247" y="85"/>
      <point x="248" y="97" type="curve"/>
    </contour>
    <contour>
      <point x="509" y="650" type="line"/>
      <point x="510" y="662"/>
      <point x="504" y="667"/>
      <point x="498" y="668" type="curve"/>
      <point x="430" y="674" type="line"/>
      <point x="422" y="675"/>
      <point x="417" y="671"/>
      <point x="416" y="660" type="curve"/>
      <point x="366" y="103" type="line"/>
      <point x="365" y="92"/>
      <point x="369" y="88"/>
      <point x="377" y="87" type="curve"/>
      <point x="445" y="81" type="line"/>
      <point x="451" y="81"/>
      <point x="458" y="85"/>
      <point x="459" y="97" type="curve"/>
    </contour>
    <contour>
      <point x="83" y="310" type="line"/>
      <point x="71" y="310"/>
      <point x="66" y="304"/>
      <point x="66" y="298" type="curve"/>
      <point x="66" y="229" type="line"/>
      <point x="66" y="221"/>
      <point x="70" y="217"/>
      <point x="81" y="217" type="curve"/>
      <point x="563" y="217" type="line"/>
      <point x="574" y="217"/>
      <point x="578" y="221"/>
      <point x="578" y="229" type="curve"/>
      <point x="578" y="298" type="line"/>
      <point x="578" y="304"/>
      <point x="573" y="310"/>
      <point x="561" y="310" type="curve"/>
    </contour>
    <contour>
      <point x="103" y="531" type="line"/>
      <point x="91" y="531"/>
      <point x="86" y="525"/>
      <point x="86" y="519" type="curve"/>
      <point x="86" y="450" type="line"/>
      <point x="86" y="442"/>
      <point x="90" y="438"/>
      <point x="101" y="438" type="curve"/>
      <point x="583" y="438" type="line"/>
      <point x="594" y="438"/>
      <point x="598" y="442"/>
      <point x="598" y="450" type="curve"/>
      <point x="598" y="519" type="line"/>
      <point x="598" y="525"/>
      <point x="593" y="531"/>
      <point x="581" y="531" type="curve"/>
    </contour>
  </outline>
</glyph>
<glyph name="quotesingle" format="1">
  <advance width="297"/>
  <unicode hex="0027"/>
  <outline>
    <contour>
      <point x="194" y="750" type="line"/>
      <point x="101" y="750" type="line"/>
      <point x="101" y="495" type="line"/>
      <point x="194" y="495" type="line"/>
    </contour>
  </outline>
</glyph>
<glyph name="period" format="1">
  <advance width="500"/>
  <unicode hex="002E"/>
  <outline>
    <contour>
      <point x="249" y="143" type="curve" smooth="yes"/>
      <point x="303" y="143"/>
      <point x="320" y="131"/>
      <point x="320" y="66" type="curve" smooth="yes"/>
      <point x="320" y="1"/>
      <point x="303" y="-13"/>
      <point x="249" y="-13" type="curve" smooth="yes"/>
      <point x="194" y="-13"/>
      <point x="178" y="1"/>
      <point x="178" y="66" type="curve" smooth="yes"/>
      <point x="178" y="131"/>
      <point x="194" y="143"/>
    </contour>
  </outline>
</glyph>
<glyph name="zero" format="1">
  <advance width="520"/>
  <unicode hex="0030"/>
  <outline>
    <contour>
      <point x="531" y="-12"/>
      <point x="613" y="84"/>
      <point x="613" y="324" type="curve" smooth="yes"/>
      <point x="613" y="584"/>
      <point x="519" y="666"/>
      <point x="346" y="666" type="curve"/>
      <point x="179" y="666"/>
      <point x="95" y="555"/>
      <point x="95" y="334" type="curve" smooth="yes"/>
      <point x="95" y="75"/>
      <point x="193" y="-12"/>
      <point x="355" y="-12" type="curve"/>
    </contour>
    <contour>
      <point x="191" y="333" type="curve" smooth="yes"/>
      <point x="191" y="502"/>
      <point x="252" y="587"/>
      <point x="349" y="587" type="curve"/>
      <point x="458" y="587"/>
      <point x="515" y="527"/>
      <point x="515" y="324" type="curve" smooth="yes"/>
      <point x="515" y="150"/>
      <point x="457" y="67"/>
      <point x="355" y="67" type="curve"/>
      <point x="258" y="67"/>
      <point x="191" y="132"/>
    </contour>
    <contour>
      <point x="464" y="567" type="line"/>
      <point x="186" y="137" type="line"/>
      <point x="236" y="74" type="line"/>
      <point x="517" y="496" type="line"/>
    </contour>
  </outline>
</glyph>
<glyph name="four" format="1">
  <advance width="572"/>
  <unicode hex="0034"/>
  <outline>
    <contour>
      <point x="353" y="680" type="line"/>
      <point x="353" y="41" type="line" smooth="yes"/>
      <point x="452" y="44" type="line"/>
      <point x="452" y="764" type="line"/>
      <point x="360" y="764" type="line"/>
      <point x="47" y="297" type="line"/>
      <point x="47" y="192" type="line"/>
      <point x="550" y="192" type="line"/>
      <point x="550" y="274" type="line"/>
      <point x="83" y="274" type="line"/>
      <point x="123" y="240" type="line"/>
      <point x="386" y="657" type="line"/>
    </contour>
    <contour>
      <point x="455" y="76" type="line"/>
      <point x="353" y="76" type="line"/>
      <point x="268" y="41" type="line"/>
      <point x="268" y="0" type="line"/>
      <point x="516" y="0" type="line"/>
      <point x="516" y="41" type="line"/>
    </contour>
  </outline>
</glyph>
<glyph name="eight" format="1">
  <advance width="556"/>
  <unicode hex="0038"/>
  <outline>
    <contour>
      <point x="279" y="-20" type="curve" smooth="yes"/>
      <point x="472" y="-20"/>
      <point x="534" y="80"/>
      <point x="534" y="221" type="curve"/>
      <point x="534" y="361"/>
      <point x="455" y="425"/>
      <point x="383" y="425" type="curve"/>
      <point x="384" y="395" type="line"/>
      <point x="455" y="395"/>
      <point x="507" y="468"/>
      <point x="507" y="584" type="curve"/>
      <point x="507" y="683"/>
      <point x="449" y="772"/>
      <point x="285" y="772" type="curve" smooth="yes"/>
      <point x="121" y="772"/>
      <point x="62" y="686"/>
      <point x="62" y="584" type="curve"/>
      <point x="62" y="473"/>
      <point x="111" y="396"/>
      <point x="182" y="396" type="curve"/>
      <point x="183" y="429" type="line"/>
      <point x="111" y="429"/>
      <point x="34" y="364"/>
      <point x="34" y="221" type="curve"/>
      <point x="34" y="80"/>
      <point x="86" y="-20"/>
    </contour>
    <contour>
      <point x="195" y="450"/>
      <point x="163" y="490"/>
      <point x="163" y="577" type="curve" smooth="yes"/>
      <point x="163" y="651"/>
      <point x="197" y="696"/>
      <point x="284" y="696" type="curve" smooth="yes"/>
      <point x="371" y="696"/>
      <point x="409" y="653"/>
      <point x="409" y="577" type="curve" smooth="yes"/>
      <point x="409" y="491"/>
      <point x="369" y="450"/>
      <point x="282" y="450" type="curve" smooth="yes"/>
    </contour>
    <contour>
      <point x="280" y="366" type="curve" smooth="yes"/>
      <point x="376" y="366"/>
      <point x="427" y="327"/>
      <point x="427" y="221" type="curve"/>
      <point x="427" y="120"/>
      <point x="396" y="62"/>
      <point x="279" y="62" type="curve" smooth="yes"/>
      <point x="162" y="62"/>
      <point x="135" y="121"/>
      <point x="135" y="221" type="curve"/>
      <point x="135" y="324"/>
      <point x="184" y="366"/>
    </contour>
  </outline>
</glyph>
<glyph name="question" format="1">
  <advance width="645"/>
  <unicode hex="003F"/>
  <outline>
    <contour>
      <point x="323" y="221" type="line"/>
      <point x="335" y="307" type="line"/>
      <point x="389" y="307" type="line"/>
      <point x="510" y="307"/>
      <point x="559" y="396"/>
      <point x="559" y="557" type="curve"/>
      <point x="559" y="740"/>
      <point x="517" y="798"/>
      <point x="311" y="798" type="curve"/>
      <point x="123" y="798"/>
      <point x="74" y="698"/>
      <point x="74" y="687" type="curve"/>
      <point x="86" y="563" type="line"/>
      <point x="163" y="563" type="line"/>
      <point x="178" y="663" type="line"/>
      <point x="196" y="684"/>
      <point x="256" y="699"/>
      <point x="303" y="699" type="curve"/>
      <point x="417" y="699"/>
      <point x="447" y="677"/>
      <point x="447" y="564" type="curve"/>
      <point x="447" y="460"/>
      <point x="432" y="396"/>
      <point x="321" y="396" type="curve"/>
      <point x="231" y="396" type="line"/>
      <point x="240" y="221" type="line"/>
    </contour>
    <contour>
      <point x="279" y="143" type="curve" smooth="yes"/>
      <point x="333" y="143"/>
      <point x="350" y="131"/>
      <point x="350" y="66" type="curve" smooth="yes"/>
      <point x="350" y="1"/>
      <point x="333" y="-13"/>
      <point x="279" y="-13" type="curve" smooth="yes"/>
      <point x="224" y="-13"/>
      <point x="208" y="1"/>
      <point x="208" y="66" type="curve" smooth="yes"/>
      <point x="208" y="131"/>
      <point x="224" y="143"/>
    </contour>
  </outline>
</glyph>
<glyph name="A" format="1">
  <advance width="677"/>
  <unicode hex="0041"/>
  <outline>
    <contour>
      <point x="288" y="760" type="line"/>
      <point x="58" y="50" type="line"/>
      <point x="153" y="30" type="line"/>
      <point x="323" y="583" type="line"/>
      <point x="340" y="706" type="line"/>
      <point x="324" y="705" type="line"/>
      <point x="343" y="582" type="line"/>
      <point x="524" y="17" type="line"/>
      <point x="618" y="50" type="line"/>
      <point x="392" y="760" type="line"/>
    </contour>
    <contour>
      <point x="506" y="82" type="line"/>
      <point x="426" y="47" type="line"/>
      <point x="426" y="0" type="line"/>
      <point x="677" y="0" type="line"/>
      <point x="677" y="47" type="line"/>
      <point x="607" y="82" type="line"/>
    </contour>
    <contour>
      <point x="70" y="82" type="line"/>
      <point x="0" y="47" type="line"/>
      <point x="0" y="0" type="line"/>
      <point x="249" y="0" type="line"/>
      <point x="249" y="47" type="line"/>
      <point x="169" y="82" type="line"/>
    </contour>
    <contour>
      <point x="165" y="309" type="line"/>
      <point x="165" y="231" type="line"/>
      <point x="504" y="231" type="line"/>
      <point x="504" y="309" type="line"/>
    </contour>
  </outline>
</glyph>
<glyph name="B" format="1">
  <advance width="606"/>
  <unicode hex="0042"/>
  <outline>
    <contour>
      <point x="318" y="444" type="curve"/>
      <point x="250" y="444"/>
      <point x="209" y="442"/>
      <point x="178" y="442" type="curve"/>
      <point x="213" y="412" type="line"/>
      <point x="213" y="685" type="line"/>
      <point x="176" y="663" type="line"/>
      <point x="204" y="675"/>
      <point x="255" y="681"/>
      <point x="316" y="681" type="curve"/>
      <point x="395" y="681"/>
      <point x="452" y="658"/>
      <point x="452" y="572" type="curve"/>
      <point x="452" y="466"/>
      <point x="402" y="444"/>
    </contour>
    <contour>
      <point x="268" y="83" type="curve"/>
      <point x="213" y="88" type="line"/>
      <point x="213" y="389" type="line"/>
      <point x="184" y="356" type="line"/>
      <point x="206" y="362"/>
      <point x="279" y="361"/>
      <point x="308" y="361" type="curve"/>
      <point x="422" y="361"/>
      <point x="476" y="334"/>
      <point x="476" y="211" type="curve"/>
      <point x="476" y="114"/>
      <point x="413" y="83"/>
    </contour>
    <contour>
      <point x="319" y="0" type="line"/>
      <point x="479" y="0"/>
      <point x="577" y="67"/>
      <point x="577" y="212" type="curve"/>
      <point x="577" y="381"/>
      <point x="497" y="415"/>
      <point x="355" y="415" type="curve"/>
      <point x="356" y="395" type="line"/>
      <point x="462" y="395"/>
      <point x="550" y="433"/>
      <point x="550" y="569" type="curve"/>
      <point x="550" y="722"/>
      <point x="458" y="757"/>
      <point x="328" y="757" type="curve" smooth="yes"/>
      <point x="269" y="757"/>
      <point x="119.5" y="752.25"/>
      <point x="48" y="750" type="curve"/>
      <point x="48" y="698" type="line"/>
      <point x="112" y="662" type="line"/>
      <point x="112" y="75" type="line" smooth="yes"/>
      <point x="45" y="40" type="line"/>
      <point x="45" y="0" type="line"/>
    </contour>
  </outline>
</glyph>
<glyph name="C" format="1">
  <advance width="575"/>
  <unicode hex="0043"/>
  <outline>
    <contour>
      <point x="330" y="693" type="curve"/>
      <point x="186" y="693"/>
      <point x="152" y="584"/>
      <point x="150" y="398" type="curve"/>
      <point x="150" y="204"/>
      <point x="172" y="68"/>
      <point x="321" y="68" type="curve" smooth="yes"/>
      <point x="424" y="68"/>
      <point x="466" y="110"/>
      <point x="492" y="135" type="curve"/>
      <point x="535" y="76" type="line"/>
      <point x="508" y="46"/>
      <point x="458" y="-16"/>
      <point x="296" y="-16" type="curve"/>
      <point x="77" y="-16"/>
      <point x="43" y="154"/>
      <point x="43" y="403" type="curve"/>
      <point x="43" y="651"/>
      <point x="120" y="770"/>
      <point x="312" y="770" type="curve" smooth="yes"/>
      <point x="403" y="770"/>
      <point x="460" y="757"/>
      <point x="528" y="715" type="curve"/>
      <point x="525" y="541" type="line"/>
      <point x="458" y="541" type="line"/>
      <point x="451" y="558"/>
      <point x="433" y="640"/>
      <point x="417" y="686" type="curve"/>
      <point x="497" y="640" type="line"/>
      <point x="449" y="647"/>
      <point x="436" y="693"/>
    </contour>
  </outline>
</glyph>
<glyph name="D" format="1">
  <advance width="667"/>
  <unicode hex="0044"/>
  <outline>
    <contour>
      <point x="516" y="126"/>
      <point x="451" y="79"/>
      <point x="324" y="79" type="curve"/>
      <point x="280" y="79"/>
      <point x="243" y="82"/>
      <point x="222" y="89" type="curve"/>
      <point x="222" y="673" type="line"/>
      <point x="244" y="677"/>
      <point x="273" y="683"/>
      <point x="323" y="683" type="curve" smooth="yes"/>
      <point x="427" y="683"/>
      <point x="516" y="661"/>
      <point x="516" y="393" type="curve"/>
    </contour>
    <contour>
      <point x="343" y="0" type="line"/>
      <point x="543" y="0"/>
      <point x="621" y="92"/>
      <point x="621" y="393" type="curve"/>
      <point x="621" y="723"/>
      <point x="517" y="757"/>
      <point x="335" y="757" type="curve" smooth="yes"/>
      <point x="276" y="757"/>
      <point x="122" y="752"/>
      <point x="50" y="750" type="curve"/>
      <point x="50" y="698" type="line"/>
      <point x="119" y="673" type="line"/>
      <point x="119" y="75" type="line" smooth="yes"/>
      <point x="52" y="40" type="line"/>
      <point x="52" y="0" type="line"/>
    </contour>
  </outline>
</glyph>
<glyph name="E" format="1">
  <advance width="564"/>
  <unicode hex="0045"/>
  <outline>
    <contour>
      <point x="158" y="431" type="line"/>
      <point x="453" y="431" type="line"/>
      <point x="453" y="350" type="line"/>
      <point x="158" y="350" type="line"/>
    </contour>
    <contour>
      <point x="517" y="150" type="line"/>
      <point x="503" y="0" type="line"/>
      <point x="45" y="0" type="line"/>
      <point x="45" y="45" type="line"/>
      <point x="115" y="79" type="line"/>
      <point x="115" y="671" type="line"/>
      <point x="45" y="705" type="line"/>
      <point x="45" y="750" type="line"/>
      <point x="499" y="750" type="line"/>
      <point x="513" y="600" type="line"/>
      <point x="457" y="600" type="line"/>
      <point x="423" y="671" type="line"/>
      <point x="219" y="671" type="line"/>
      <point x="219" y="79" type="line"/>
      <point x="427" y="79" type="line"/>
      <point x="461" y="150" type="line"/>
    </contour>
  </outline>
</glyph>
<glyph name="F" format="1">
  <advance width="500"/>
  <unicode hex="0046"/>
  <outline>
    <contour>
      <point x="148" y="408" type="line"/>
      <point x="439" y="408" type="line"/>
      <point x="439" y="328" type="line"/>
      <point x="148" y="328" type="line"/>
    </contour>
    <contour>
      <point x="322" y="0" type="line"/>
      <point x="35" y="0" type="line"/>
      <point x="35" y="45" type="line"/>
      <point x="105" y="79" type="line"/>
      <point x="105" y="671" type="line"/>
      <point x="35" y="705" type="line"/>
      <point x="35" y="750" type="line"/>
      <point x="479" y="750" type="line"/>
      <point x="493" y="600" type="line"/>
      <point x="437" y="600" type="line"/>
      <point x="403" y="671" type="line"/>
      <point x="209" y="671" type="line"/>
      <point x="209" y="79" type="line"/>
      <point x="322" y="49" type="line"/>
    </contour>
  </outline>
</glyph>
<glyph name="G" format="1">
  <advance width="609"/>
  <unicode hex="0047"/>
  <outline>
    <contour>
      <point x="334" y="693" type="curve"/>
      <point x="190" y="693"/>
      <point x="152" y="584"/>
      <point x="150" y="398" type="curve"/>
      <point x="150" y="181"/>
      <point x="176" y="66"/>
      <point x="331" y="66" type="curve"/>
      <point x="385" y="66"/>
      <point x="424" y="83"/>
      <point x="453" y="100" type="curve"/>
      <point x="453" y="373" type="line"/>
      <point x="550" y="373" type="line"/>
      <point x="550" y="47" type="line"/>
      <point x="502" y="13"/>
      <point x="427" y="-18"/>
      <point x="306" y="-18" type="curve"/>
      <point x="92" y="-18"/>
      <point x="43" y="136"/>
      <point x="43" y="403" type="curve"/>
      <point x="43" y="651"/>
      <point x="124" y="770"/>
      <point x="316" y="770" type="curve" smooth="yes"/>
      <point x="407" y="770"/>
      <point x="468" y="757"/>
      <point x="536" y="715" type="curve"/>
      <point x="533" y="541" type="line"/>
      <point x="466" y="541" type="line"/>
      <point x="459" y="558"/>
      <point x="441" y="640"/>
      <point x="425" y="686" type="curve"/>
      <point x="505" y="640" type="line"/>
      <point x="457" y="647"/>
      <point x="440" y="693"/>
    </contour>
    <contour>
      <point x="337" y="392" type="line"/>
      <point x="549" y="392" type="line"/>
      <point x="549" y="303" type="line"/>
      <point x="337" y="303" type="line"/>
      <point x="337" y="347" type="line"/>
    </contour>
  </outline>
</glyph>
<glyph name="H" format="1">
  <advance width="737"/>
  <unicode hex="0048"/>
  <outline>
    <contour>
      <point x="225" y="1" type="line" smooth="yes"/>
      <point x="225" y="713" type="line"/>
      <point x="125" y="713" type="line"/>
      <point x="125" y="1" type="line"/>
    </contour>
    <contour>
      <point x="225" y="77" type="line"/>
      <point x="125" y="77" type="line"/>
      <point x="55" y="42" type="line"/>
      <point x="55" y="0" type="line"/>
      <point x="305" y="0" type="line"/>
      <point x="305" y="42" type="line"/>
    </contour>
    <contour>
      <point x="225" y="668" type="line"/>
      <point x="305" y="703" type="line"/>
      <point x="305" y="750" type="line"/>
      <point x="55" y="750" type="line"/>
      <point x="55" y="703" type="line"/>
      <point x="125" y="668" type="line"/>
    </contour>
    <contour>
      <point x="612" y="1" type="line" smooth="yes"/>
      <point x="612" y="713" type="line"/>
      <point x="512" y="713" type="line"/>
      <point x="512" y="1" type="line"/>
    </contour>
    <contour>
      <point x="612" y="77" type="line"/>
      <point x="512" y="77" type="line"/>
      <point x="432" y="42" type="line"/>
      <point x="432" y="0" type="line"/>
      <point x="682" y="0" type="line"/>
      <point x="682" y="42" type="line"/>
    </contour>
    <contour>
      <point x="612" y="668" type="line"/>
      <point x="682" y="703" type="line"/>
      <point x="682" y="750" type="line"/>
      <point x="432" y="750" type="line"/>
      <point x="432" y="703" type="line"/>
      <point x="512" y="668" type="line"/>
    </contour>
    <contour>
      <point x="193" y="431" type="line"/>
      <point x="193" y="353" type="line"/>
      <point x="532" y="353" type="line"/>
      <point x="532" y="431" type="line"/>
    </contour>
  </outline>
</glyph>
<glyph name="I" format="1">
  <advance width="350"/>
  <unicode hex="0049"/>
  <outline>
    <contour>
      <point x="225" y="1" type="line" smooth="yes"/>
      <point x="225" y="709" type="line"/>
      <point x="125" y="709" type="line"/>
      <point x="125" y="1" type="line"/>
    </contour>
    <contour>
      <point x="225" y="76" type="line"/>
      <point x="125" y="76" type="line"/>
      <point x="50" y="41" type="line"/>
      <point x="50" y="0" type="line"/>
      <point x="300" y="0" type="line"/>
      <point x="300" y="41" type="line"/>
    </contour>
    <contour>
      <point x="225" y="674" type="line"/>
      <point x="300" y="709" type="line"/>
      <point x="300" y="750" type="line"/>
      <point x="50" y="750" type="line"/>
      <point x="50" y="709" type="line"/>
      <point x="125" y="674" type="line"/>
    </contour>
  </outline>
</glyph>
<glyph name="J" format="1">
  <advance width="370"/>
  <unicode hex="004A"/>
  <outline>
    <contour>
      <point x="143" y="668" type="line"/>
      <point x="245" y="668" type="line"/>
      <point x="315" y="703" type="line"/>
      <point x="315" y="750" type="line"/>
      <point x="43" y="750" type="line"/>
      <point x="43" y="703" type="line"/>
    </contour>
    <contour>
      <point x="0" y="-129" type="line"/>
      <point x="192" y="-127"/>
      <point x="245" y="-3"/>
      <point x="245" y="126" type="curve"/>
      <point x="245" y="745" type="line"/>
      <point x="143" y="745" type="line"/>
      <point x="143" y="136" type="line"/>
      <point x="143" y="47"/>
      <point x="128" y="-53"/>
      <point x="0" y="-55" type="curve"/>
    </contour>
  </outline>
</glyph>
<glyph name="K" format="1">
  <advance width="617"/>
  <unicode hex="004B"/>
  <outline>
    <contour>
      <point x="188" y="1" type="line" smooth="yes"/>
      <point x="89" y="1" type="line"/>
      <point x="89" y="750" type="line"/>
      <point x="188" y="750" type="line"/>
    </contour>
    <contour>
      <point x="637" y="0" type="line"/>
      <point x="473" y="0" type="line"/>
      <point x="252" y="375" type="line"/>
      <point x="316" y="448" type="line"/>
      <point x="553" y="75" type="line"/>
      <point x="637" y="50" type="line"/>
    </contour>
    <contour>
      <point x="158" y="221" type="line"/>
      <point x="130" y="316" type="line"/>
      <point x="454" y="711" type="line"/>
      <point x="558" y="700" type="line"/>
    </contour>
    <contour>
      <point x="373" y="701" type="line"/>
      <point x="373" y="750" type="line"/>
      <point x="606" y="750" type="line"/>
      <point x="606" y="695" type="line"/>
      <point x="536" y="673" type="line"/>
      <point x="424" y="673" type="line"/>
    </contour>
    <contour>
      <point x="189" y="673" type="line"/>
      <point x="89" y="673" type="line"/>
      <point x="19" y="699" type="line"/>
      <point x="19" y="750" type="line"/>
      <point x="272" y="750" type="line"/>
      <point x="272" y="699" type="line"/>
    </contour>
    <contour>
      <point x="188" y="75" type="line"/>
      <point x="260" y="41" type="line"/>
      <point x="260" y="0" type="line"/>
      <point x="26" y="0" type="line"/>
      <point x="26" y="41" type="line"/>
      <point x="89" y="75" type="line"/>
    </contour>
  </outline>
</glyph>
<glyph name="L" format="1">
  <advance width="500"/>
  <unicode hex="004C"/>
  <outline>
    <contour>
      <point x="207" y="692" type="line"/>
      <point x="105" y="692" type="line"/>
      <point x="105" y="79" type="line"/>
      <point x="35" y="45" type="line"/>
      <point x="35" y="0" type="line"/>
      <point x="469" y="0" type="line"/>
      <point x="483" y="150" type="line"/>
      <point x="427" y="150" type="line"/>
      <point x="390" y="79" type="line"/>
      <point x="207" y="79" type="line"/>
    </contour>
    <contour>
      <point x="209" y="668" type="line"/>
      <point x="292" y="699" type="line"/>
      <point x="292" y="750" type="line"/>
      <point x="36" y="750" type="line"/>
      <point x="36" y="699" type="line"/>
      <point x="106" y="668" type="line"/>
    </contour>
  </outline>
</glyph>
<glyph name="M" format="1">
  <advance width="944"/>
  <unicode hex="004D"/>
  <outline>
    <contour>
      <point x="201" y="1" type="line" smooth="yes"/>
      <point x="227" y="476" type="line"/>
      <point x="218" y="625" type="line"/>
      <point x="223" y="709" type="line"/>
      <point x="145" y="709" type="line"/>
      <point x="105" y="1" type="line"/>
    </contour>
    <contour>
      <point x="195" y="76" type="line"/>
      <point x="105" y="76" type="line"/>
      <point x="30" y="41" type="line"/>
      <point x="30" y="0" type="line"/>
      <point x="270" y="0" type="line"/>
      <point x="270" y="41" type="line"/>
    </contour>
    <contour>
      <point x="241" y="674" type="line"/>
      <point x="273" y="750" type="line"/>
      <point x="70" y="750" type="line"/>
      <point x="70" y="709" type="line"/>
      <point x="145" y="674" type="line"/>
    </contour>
    <contour>
      <point x="737" y="1" type="line" smooth="yes"/>
      <point x="840" y="1" type="line"/>
      <point x="800" y="709" type="line"/>
      <point x="715" y="709" type="line"/>
      <point x="729" y="632" type="line"/>
      <point x="708" y="476" type="line"/>
    </contour>
    <contour>
      <point x="737" y="76" type="line"/>
      <point x="662" y="41" type="line"/>
      <point x="662" y="0" type="line"/>
      <point x="915" y="0" type="line"/>
      <point x="915" y="41" type="line"/>
      <point x="840" y="76" type="line"/>
    </contour>
    <contour>
      <point x="697" y="674" type="line"/>
      <point x="800" y="674" type="line"/>
      <point x="875" y="709" type="line"/>
      <point x="875" y="750" type="line"/>
      <point x="679" y="750" type="line"/>
    </contour>
    <contour>
      <point x="515" y="20" type="line"/>
      <point x="742" y="648" type="line"/>
      <point x="679" y="750" type="line"/>
      <point x="448" y="78" type="line"/>
      <point x="507" y="78" type="line"/>
      <point x="273" y="750" type="line"/>
      <point x="203" y="656" type="line"/>
      <point x="421" y="20" type="line"/>
    </contour>
  </outline>
</glyph>
<glyph name="N" format="1">
  <advance width="787"/>
  <unicode hex="004E"/>
  <outline>
    <contour>
      <point x="234" y="1" type="line" smooth="yes"/>
      <point x="234" y="476" type="line"/>
      <point x="211" y="625" type="line"/>
      <point x="216" y="709" type="line"/>
      <point x="140" y="709" type="line"/>
      <point x="140" y="1" type="line"/>
    </contour>
    <contour>
      <point x="234" y="76" type="line"/>
      <point x="140" y="76" type="line"/>
      <point x="65" y="41" type="line"/>
      <point x="65" y="0" type="line"/>
      <point x="309" y="0" type="line"/>
      <point x="309" y="41" type="line"/>
    </contour>
    <contour>
      <point x="234" y="674" type="line"/>
      <point x="240" y="750" type="line"/>
      <point x="65" y="750" type="line"/>
      <point x="65" y="709" type="line"/>
      <point x="140" y="674" type="line"/>
    </contour>
    <contour>
      <point x="610" y="110" type="line"/>
      <point x="236" y="750" type="line"/>
      <point x="178" y="648" type="line"/>
      <point x="564" y="0" type="line"/>
    </contour>
    <contour>
      <point x="657" y="1" type="line" smooth="yes"/>
      <point x="657" y="709" type="line"/>
      <point x="564" y="709" type="line"/>
      <point x="564" y="259" type="line"/>
      <point x="587" y="103" type="line"/>
      <point x="564" y="1" type="line"/>
    </contour>
    <contour>
      <point x="657" y="674" type="line"/>
      <point x="732" y="709" type="line"/>
      <point x="732" y="750" type="line"/>
      <point x="489" y="750" type="line"/>
      <point x="489" y="709" type="line"/>
      <point x="564" y="674" type="line"/>
    </contour>
  </outline>
</glyph>
<glyph name="O" format="1">
  <advance width="647"/>
  <unicode hex="004F"/>
  <outline>
    <contour>
      <point x="324" y="773" type="curve" smooth="yes"/>
      <point x="545" y="773"/>
      <point x="597" y="654"/>
      <point x="597" y="375" type="curve" smooth="yes"/>
      <point x="597" y="96"/>
      <point x="537" y="-19"/>
      <point x="324" y="-19" type="curve" smooth="yes"/>
      <point x="111" y="-19"/>
      <point x="50" y="95"/>
      <point x="50" y="373" type="curve" smooth="yes"/>
      <point x="50" y="651"/>
      <point x="103" y="773"/>
    </contour>
    <contour>
      <point x="160" y="372" type="curve" smooth="yes"/>
      <point x="160" y="168"/>
      <point x="181" y="65"/>
      <point x="324" y="65" type="curve" smooth="yes"/>
      <point x="467" y="65"/>
      <point x="487" y="169"/>
      <point x="487" y="374" type="curve" smooth="yes"/>
      <point x="487" y="579"/>
      <point x="479" y="694"/>
      <point x="324" y="694" type="curve" smooth="yes"/>
      <point x="169" y="694"/>
      <point x="160" y="576"/>
    </contour>
  </outline>
</glyph>
<glyph name="P" format="1">
  <advance width="607"/>
  <unicode hex="0050"/>
  <outline>
    <contour>
      <point x="325" y="350" type="curve"/>
      <point x="185" y="350" type="line"/>
      <point x="220" y="323" type="line"/>
      <point x="220" y="712" type="line"/>
      <point x="182" y="683" type="line"/>
      <point x="212" y="684"/>
      <point x="262" y="686"/>
      <point x="323" y="686" type="curve"/>
      <point x="420" y="686"/>
      <point x="459" y="637"/>
      <point x="459" y="535" type="curve"/>
      <point x="459" y="402"/>
      <point x="431" y="350"/>
    </contour>
    <contour>
      <point x="344" y="269" type="line"/>
      <point x="487" y="269"/>
      <point x="557" y="360"/>
      <point x="557" y="535" type="curve"/>
      <point x="557" y="725"/>
      <point x="470" y="757"/>
      <point x="340" y="757" type="curve" smooth="yes"/>
      <point x="281" y="757"/>
      <point x="122" y="752"/>
      <point x="50" y="750" type="curve"/>
      <point x="50" y="698" type="line"/>
      <point x="119" y="673" type="line"/>
      <point x="119" y="75" type="line" smooth="yes"/>
      <point x="52" y="44" type="line"/>
      <point x="52" y="0" type="line"/>
      <point x="308" y="0" type="line"/>
      <point x="305" y="44" type="line"/>
      <point x="220" y="77" type="line"/>
      <point x="220" y="300" type="line"/>
      <point x="191" y="269" type="line"/>
    </contour>
  </outline>
</glyph>
<glyph name="Q" format="1">
  <advance width="659"/>
  <unicode hex="0051"/>
  <outline>
    <contour>
      <point x="330" y="773" type="curve" smooth="yes"/>
      <point x="551" y="773"/>
      <point x="609" y="646"/>
      <point x="604" y="375" type="curve" smooth="yes"/>
      <point x="599" y="118"/>
      <point x="538" y="-19"/>
      <point x="330" y="-19" type="curve" smooth="yes"/>
      <point x="117" y="-19"/>
      <point x="55" y="103"/>
      <point x="55" y="373" type="curve" smooth="yes"/>
      <point x="55" y="643"/>
      <point x="109" y="773"/>
    </contour>
    <contour>
      <point x="163" y="372" type="curve" smooth="yes"/>
      <point x="163" y="168"/>
      <point x="187" y="64"/>
      <point x="330" y="64" type="curve" smooth="yes"/>
      <point x="486" y="64"/>
      <point x="496" y="153"/>
      <point x="496" y="374" type="curve" smooth="yes"/>
      <point x="496" y="579"/>
      <point x="485" y="694"/>
      <point x="330" y="694" type="curve" smooth="yes"/>
      <point x="175" y="694"/>
      <point x="163" y="576"/>
    </contour>
    <contour>
      <point x="331" y="119" type="line"/>
      <point x="403" y="171" type="line"/>
      <point x="568" y="-45" type="line"/>
      <point x="497" y="-102" type="line"/>
    </contour>
  </outline>
</glyph>
<glyph name="R" format="1">
  <advance width="645"/>
  <unicode hex="0052"/>
  <outline>
    <contour>
      <point x="195" y="390" type="line"/>
      <point x="201" y="310" type="line"/>
      <point x="368" y="310" type="line"/>
      <point x="511" y="310"/>
      <point x="574" y="398"/>
      <point x="574" y="550" type="curve"/>
      <point x="574" y="727"/>
      <point x="475" y="757"/>
      <point x="345" y="757" type="curve" smooth="yes"/>
      <point x="286" y="757"/>
      <point x="128" y="752"/>
      <point x="56" y="750" type="curve"/>
      <point x="56" y="698" type="line"/>
      <point x="125" y="673" type="line"/>
      <point x="125" y="75" type="line" smooth="yes"/>
      <point x="58" y="44" type="line"/>
      <point x="58" y="0" type="line"/>
      <point x="307" y="0" type="line"/>
      <point x="304" y="44" type="line"/>
      <point x="230" y="77" type="line"/>
      <point x="230" y="712" type="line"/>
      <point x="192" y="680" type="line"/>
      <point x="222" y="681"/>
      <point x="272" y="683"/>
      <point x="333" y="683" type="curve"/>
      <point x="430" y="683"/>
      <point x="467" y="653"/>
      <point x="467" y="541" type="curve"/>
      <point x="467" y="430"/>
      <point x="435" y="390"/>
      <point x="337" y="390" type="curve"/>
    </contour>
    <contour>
      <point x="644" y="0" type="line"/>
      <point x="644" y="41" type="line"/>
      <point x="569" y="76" type="line"/>
      <point x="448" y="359" type="line"/>
      <point x="358" y="329" type="line"/>
      <point x="491" y="0" type="line"/>
    </contour>
  </outline>
</glyph>
<glyph name="S" format="1">
  <advance width="626"/>
  <unicode hex="0053"/>
  <outline>
    <contour>
      <point x="331" y="429" type="curve" smooth="yes"/>
      <point x="203" y="461"/>
      <point x="167" y="487"/>
      <point x="167" y="564" type="curve"/>
      <point x="167" y="636"/>
      <point x="198" y="688"/>
      <point x="311" y="688" type="curve"/>
      <point x="376" y="688"/>
      <point x="416" y="670"/>
      <point x="427" y="656" type="curve"/>
      <point x="453" y="546" type="line"/>
      <point x="528" y="546" type="line"/>
      <point x="528" y="705" type="line"/>
      <point x="521" y="718"/>
      <point x="474" y="771"/>
      <point x="316" y="771" type="curve"/>
      <point x="135" y="771"/>
      <point x="71" y="700"/>
      <point x="71" y="557" type="curve"/>
      <point x="71" y="413"/>
      <point x="142" y="371"/>
      <point x="292" y="340" type="curve" smooth="yes"/>
      <point x="418" y="314"/>
      <point x="461" y="292"/>
      <point x="461" y="196" type="curve"/>
      <point x="461" y="105"/>
      <point x="425" y="73"/>
      <point x="319" y="73" type="curve"/>
      <point x="232" y="73"/>
      <point x="181" y="102"/>
      <point x="177" y="109" type="curve"/>
      <point x="149" y="232" type="line"/>
      <point x="71" y="232" type="line"/>
      <point x="71" y="55" type="line"/>
      <point x="81" y="45"/>
      <point x="146" y="-17"/>
      <point x="318" y="-17" type="curve"/>
      <point x="468" y="-17"/>
      <point x="564" y="35"/>
      <point x="564" y="202" type="curve"/>
      <point x="564" y="369"/>
      <point x="482" y="391"/>
    </contour>
  </outline>
</glyph>
<glyph name="T" format="1">
  <advance width="534"/>
  <unicode hex="0054"/>
  <outline>
    <contour>
      <point x="127" y="0" type="line"/>
      <point x="407" y="0" type="line"/>
      <point x="407" y="49" type="line"/>
      <point x="319" y="79" type="line"/>
      <point x="319" y="667" type="line"/>
      <point x="448" y="667" type="line"/>
      <point x="478" y="590" type="line"/>
      <point x="534" y="590" type="line"/>
      <point x="534" y="750" type="line"/>
      <point x="0" y="750" type="line"/>
      <point x="0" y="590" type="line"/>
      <point x="56" y="590" type="line"/>
      <point x="86" y="667" type="line"/>
      <point x="215" y="667" type="line"/>
      <point x="215" y="79" type="line"/>
      <point x="127" y="49" type="line"/>
    </contour>
  </outline>
</glyph>
<glyph name="U" format="1">
  <advance width="649"/>
  <unicode hex="0055"/>
  <outline>
    <contour>
      <point x="466" y="668" type="line"/>
      <point x="572" y="668" type="line"/>
      <point x="642" y="703" type="line"/>
      <point x="642" y="750" type="line"/>
      <point x="386" y="750" type="line"/>
      <point x="386" y="703" type="line"/>
    </contour>
    <contour>
      <point x="74" y="668" type="line"/>
      <point x="179" y="668" type="line"/>
      <point x="259" y="703" type="line"/>
      <point x="259" y="750" type="line"/>
      <point x="4" y="750" type="line"/>
      <point x="4" y="703" type="line"/>
    </contour>
    <contour>
      <point x="179" y="256" type="curve"/>
      <point x="179" y="743" type="line"/>
      <point x="74" y="743" type="line"/>
      <point x="74" y="236" type="line"/>
      <point x="74" y="105"/>
      <point x="128" y="-19"/>
      <point x="323" y="-19" type="curve" smooth="yes"/>
      <point x="518" y="-19"/>
      <point x="572" y="106"/>
      <point x="572" y="236" type="curve"/>
      <point x="572" y="745" type="line"/>
      <point x="466" y="745" type="line"/>
      <point x="466" y="256" type="line"/>
      <point x="466" y="166"/>
      <point x="455" y="65"/>
      <point x="323" y="65" type="curve" smooth="yes"/>
      <point x="191" y="65"/>
      <point x="179" y="165"/>
    </contour>
  </outline>
</glyph>
<glyph name="V" format="1">
  <advance width="647"/>
  <unicode hex="0056"/>
  <outline>
    <contour>
      <point x="371" y="0" type="line"/>
      <point x="599" y="700" type="line"/>
      <point x="503" y="720" type="line"/>
      <point x="334" y="177" type="line"/>
      <point x="317" y="54" type="line"/>
      <point x="333" y="55" type="line"/>
      <point x="314" y="178" type="line"/>
      <point x="152" y="733" type="line"/>
      <point x="56" y="700" type="line"/>
      <point x="263" y="0" type="line"/>
    </contour>
    <contour>
      <point x="170" y="668" type="line"/>
      <point x="250" y="703" type="line"/>
      <point x="250" y="750" type="line"/>
      <point x="-3" y="750" type="line"/>
      <point x="-3" y="703" type="line"/>
      <point x="67" y="668" type="line"/>
    </contour>
    <contour>
      <point x="587" y="668" type="line"/>
      <point x="657" y="703" type="line"/>
      <point x="657" y="750" type="line"/>
      <point x="407" y="750" type="line"/>
      <point x="407" y="703" type="line"/>
      <point x="487" y="668" type="line"/>
    </contour>
  </outline>
</glyph>
<glyph name="W" format="1">
  <advance width="1026"/>
  <unicode hex="0057"/>
  <outline>
    <contour>
      <point x="180" y="668" type="line"/>
      <point x="263" y="703" type="line"/>
      <point x="263" y="750" type="line"/>
      <point x="3" y="750" type="line"/>
      <point x="3" y="703" type="line"/>
      <point x="73" y="668" type="line"/>
    </contour>
    <contour>
      <point x="952" y="668" type="line"/>
      <point x="1022" y="703" type="line"/>
      <point x="1022" y="750" type="line"/>
      <point x="771" y="750" type="line"/>
      <point x="771" y="703" type="line"/>
      <point x="854" y="668" type="line"/>
    </contour>
    <contour>
      <point x="478" y="726" type="line"/>
      <point x="304" y="177" type="line"/>
      <point x="287" y="54" type="line"/>
      <point x="303" y="55" type="line"/>
      <point x="285" y="178" type="line"/>
      <point x="163" y="733" type="line"/>
      <point x="62" y="700" type="line"/>
      <point x="224" y="0" type="line"/>
      <point x="340" y="0" type="line"/>
      <point x="524" y="582" type="line"/>
      <point x="495" y="582" type="line"/>
      <point x="669" y="0" type="line"/>
      <point x="787" y="0" type="line"/>
      <point x="964" y="700" type="line"/>
      <point x="870" y="720" type="line"/>
      <point x="741" y="177" type="line"/>
      <point x="724" y="54" type="line"/>
      <point x="740" y="55" type="line"/>
      <point x="723" y="178" type="line"/>
      <point x="553" y="726" type="line"/>
    </contour>
  </outline>
</glyph>
<glyph name="X" format="1">
  <advance width="632"/>
  <unicode hex="0058"/>
  <outline>
    <contour>
      <point x="238" y="699" type="line"/>
      <point x="200" y="673" type="line"/>
      <point x="78" y="673" type="line"/>
      <point x="12" y="699" type="line"/>
      <point x="12" y="748" type="line"/>
      <point x="238" y="748" type="line"/>
    </contour>
    <contour>
      <point x="392" y="699" type="line"/>
      <point x="392" y="748" type="line"/>
      <point x="617" y="748" type="line"/>
      <point x="617" y="699" type="line"/>
      <point x="540" y="673" type="line"/>
      <point x="432" y="673" type="line"/>
    </contour>
    <contour>
      <point x="401" y="49" type="line"/>
      <point x="445" y="75" type="line"/>
      <point x="566" y="75" type="line"/>
      <point x="632" y="49" type="line"/>
      <point x="632" y="0" type="line"/>
      <point x="401" y="0" type="line"/>
    </contour>
    <contour>
      <point x="225" y="49" type="line"/>
      <point x="225" y="0" type="line"/>
      <point x="0" y="0" type="line"/>
      <point x="0" y="49" type="line"/>
      <point x="69" y="75" type="line"/>
      <point x="176" y="75" type="line"/>
    </contour>
    <contour>
      <point x="476" y="23" type="line"/>
      <point x="271" y="375" type="line"/>
      <point x="329" y="367" type="line"/>
      <point x="155" y="32" type="line"/>
      <point x="44" y="31" type="line" smooth="yes"/>
      <point x="258" y="418" type="line"/>
      <point x="258" y="379" type="line"/>
      <point x="61" y="705" type="line"/>
      <point x="167" y="725" type="line"/>
      <point x="343" y="425" type="line"/>
      <point x="292" y="417" type="line"/>
      <point x="455" y="716" type="line"/>
      <point x="564" y="717" type="line" smooth="yes"/>
      <point x="365" y="370" type="line"/>
      <point x="356" y="415" type="line"/>
      <point x="586" y="36" type="line"/>
    </contour>
  </outline>
</glyph>
<glyph name="Y" format="1">
  <advance width="657"/>
  <unicode hex="0059"/>
  <outline>
    <contour>
      <point x="377" y="242" type="line"/>
      <point x="606" y="700" type="line"/>
      <point x="513" y="720" type="line"/>
      <point x="340" y="370" type="line"/>
      <point x="323" y="278" type="line"/>
      <point x="339" y="279" type="line"/>
      <point x="320" y="371" type="line"/>
      <point x="152" y="733" type="line"/>
      <point x="59" y="700" type="line"/>
      <point x="267" y="242" type="line"/>
    </contour>
    <contour>
      <point x="170" y="668" type="line"/>
      <point x="250" y="703" type="line"/>
      <point x="250" y="750" type="line"/>
      <point x="0" y="750" type="line"/>
      <point x="0" y="703" type="line"/>
      <point x="70" y="668" type="line"/>
    </contour>
    <contour>
      <point x="593" y="668" type="line"/>
      <point x="663" y="703" type="line"/>
      <point x="663" y="750" type="line"/>
      <point x="417" y="750" type="line"/>
      <point x="417" y="703" type="line"/>
      <point x="497" y="668" type="line"/>
    </contour>
    <contour>
      <point x="376" y="1" type="line" smooth="yes"/>
      <point x="376" y="291" type="line"/>
      <point x="267" y="291" type="line"/>
      <point x="267" y="1" type="line"/>
    </contour>
    <contour>
      <point x="376" y="76" type="line"/>
      <point x="267" y="76" type="line"/>
      <point x="192" y="41" type="line"/>
      <point x="192" y="0" type="line"/>
      <point x="451" y="0" type="line"/>
      <point x="451" y="41" type="line"/>
    </contour>
  </outline>
</glyph>
<glyph name="Z" format="1">
  <advance width="585"/>
  <unicode hex="005A"/>
  <outline>
    <contour>
      <point x="443" y="83" type="line"/>
      <point x="475" y="218" type="line"/>
      <point x="543" y="218" type="line"/>
      <point x="541" y="0" type="line"/>
      <point x="54" y="0" type="line"/>
      <point x="52" y="68" type="line"/>
      <point x="423" y="671" type="line"/>
      <point x="436" y="663" type="line"/>
      <point x="165" y="663" type="line"/>
      <point x="138" y="545" type="line"/>
      <point x="72" y="545" type="line"/>
      <point x="72" y="750" type="line"/>
      <point x="540" y="750" type="line"/>
      <point x="540" y="673" type="line"/>
      <point x="174" y="71" type="line"/>
      <point x="173" y="83" type="line"/>
    </contour>
  </outline>
</glyph>
<glyph name="a" format="1">
  <advance width="565"/>
  <unicode hex="0061"/>
  <outline>
    <contour>
      <point x="105" y="413" type="line"/>
      <point x="142" y="439"/>
      <point x="219" y="463"/>
      <point x="286" y="463" type="curve"/>
      <point x="363" y="463"/>
      <point x="398" y="422"/>
      <point x="398" y="364" type="curve"/>
      <point x="398" y="164" type="line"/>
      <point x="410" y="208" type="line"/>
      <point x="392" y="172"/>
      <point x="288" y="72"/>
      <point x="216" y="72" type="curve"/>
      <point x="156" y="72"/>
      <point x="128" y="116"/>
      <point x="128" y="174" type="curve"/>
      <point x="128" y="239"/>
      <point x="181" y="259"/>
      <point x="270" y="259" type="curve" smooth="yes"/>
      <point x="315" y="259"/>
      <point x="371" y="254"/>
      <point x="412" y="245" type="curve"/>
      <point x="415" y="322" type="line"/>
      <point x="379" y="329"/>
      <point x="322" y="336"/>
      <point x="264" y="336" type="curve" smooth="yes"/>
      <point x="172" y="336"/>
      <point x="32" y="315"/>
      <point x="32" y="179" type="curve"/>
      <point x="32" y="72"/>
      <point x="78" y="-12"/>
      <point x="204" y="-12" type="curve"/>
      <point x="319" y="-12"/>
      <point x="387" y="70"/>
      <point x="412" y="116" type="curve"/>
      <point x="405" y="116" type="line"/>
      <point x="405" y="0" type="line"/>
      <point x="553" y="0" type="line"/>
      <point x="553" y="47" type="line"/>
      <point x="486" y="75" type="line"/>
      <point x="486" y="350" type="line"/>
      <point x="486" y="479"/>
      <point x="435" y="543"/>
      <point x="283" y="543" type="curve"/>
      <point x="193" y="543"/>
      <point x="109" y="512"/>
      <point x="66" y="482" type="curve"/>
    </contour>
  </outline>
</glyph>
<glyph name="b" format="1">
  <advance width="618"/>
  <unicode hex="0062"/>
  <outline>
    <contour>
      <point x="180" y="800" type="line"/>
      <point x="178" y="53" type="line"/>
      <point x="137" y="1" type="line"/>
      <point x="81" y="1" type="line"/>
      <point x="81" y="800" type="line"/>
    </contour>
    <contour>
      <point x="131" y="95" type="curve"/>
      <point x="171" y="145" type="line"/>
      <point x="187" y="111"/>
      <point x="234" y="66"/>
      <point x="332" y="66" type="curve"/>
      <point x="433" y="66"/>
      <point x="458" y="142"/>
      <point x="458" y="271" type="curve"/>
      <point x="458" y="409"/>
      <point x="427" y="455"/>
      <point x="348" y="455" type="curve"/>
      <point x="257" y="455"/>
      <point x="175" y="352"/>
      <point x="150" y="314" type="curve"/>
      <point x="117" y="362" type="line"/>
      <point x="136" y="400"/>
      <point x="198" y="539"/>
      <point x="372" y="539" type="curve"/>
      <point x="493" y="539"/>
      <point x="561" y="452"/>
      <point x="561" y="264" type="curve" smooth="yes"/>
      <point x="561" y="79"/>
      <point x="494" y="-16"/>
      <point x="347" y="-16" type="curve"/>
      <point x="215" y="-16"/>
      <point x="172" y="52"/>
    </contour>
    <component base="serif-top" yOffset="276"/>
  </outline>
</glyph>
<glyph name="c" format="1">
  <advance width="511"/>
  <unicode hex="0063"/>
  <outline>
    <contour>
      <point x="401" y="363" type="line"/>
      <point x="382" y="444" type="line"/>
      <point x="365" y="459"/>
      <point x="339" y="467"/>
      <point x="303" y="467" type="curve" smooth="yes"/>
      <point x="198" y="467"/>
      <point x="148" y="391"/>
      <point x="148" y="264" type="curve" smooth="yes"/>
      <point x="148" y="137"/>
      <point x="190" y="64"/>
      <point x="303" y="64" type="curve" smooth="yes"/>
      <point x="376" y="64"/>
      <point x="425" y="89"/>
      <point x="450" y="110" type="curve"/>
      <point x="485" y="34" type="line"/>
      <point x="446" y="9"/>
      <point x="388" y="-16"/>
      <point x="303" y="-16" type="curve" smooth="yes"/>
      <point x="121" y="-16"/>
      <point x="45" y="84"/>
      <point x="45" y="264" type="curve" smooth="yes"/>
      <point x="45" y="444"/>
      <point x="135" y="545"/>
      <point x="303" y="545" type="curve" smooth="yes"/>
      <point x="361" y="545"/>
      <point x="433" y="523"/>
      <point x="471" y="500" type="curve"/>
      <point x="471" y="365" type="line"/>
    </contour>
  </outline>
</glyph>
<glyph name="d" format="1">
  <advance width="606"/>
  <unicode hex="0064"/>
  <outline>
    <contour>
      <point x="522" y="800" type="line"/>
      <point x="522" y="88" type="line"/>
      <point x="587" y="47" type="line"/>
      <point x="587" y="1" type="line"/>
      <point x="438" y="2" type="line"/>
      <point x="424" y="114" type="line"/>
      <point x="424" y="800" type="line"/>
    </contour>
    <contour>
      <point x="471" y="129" type="line"/>
      <point x="443" y="81"/>
      <point x="394" y="-16"/>
      <point x="257" y="-16" type="curve"/>
      <point x="96" y="-16"/>
      <point x="51" y="93"/>
      <point x="51" y="278" type="curve" smooth="yes"/>
      <point x="51" y="460"/>
      <point x="116" y="543"/>
      <point x="268" y="543" type="curve"/>
      <point x="397" y="543"/>
      <point x="429" y="445"/>
      <point x="460" y="378" type="curve"/>
      <point x="434" y="341" type="line"/>
      <point x="390" y="393"/>
      <point x="352" y="456"/>
      <point x="270" y="456" type="curve"/>
      <point x="186" y="456"/>
      <point x="154" y="395"/>
      <point x="154" y="278" type="curve" smooth="yes"/>
      <point x="154" y="156"/>
      <point x="166" y="71"/>
      <point x="272" y="71" type="curve"/>
      <point x="370" y="71"/>
      <point x="417" y="129"/>
      <point x="433" y="163" type="curve"/>
    </contour>
    <component base="serif-top" xOffset="339" yOffset="275"/>
  </outline>
</glyph>
<glyph name="e" format="1">
  <advance width="573"/>
  <unicode hex="0065"/>
  <outline>
    <contour>
      <point x="119" y="321" type="line"/>
      <point x="419" y="321" type="line"/>
      <point x="420" y="329"/>
      <point x="421" y="355"/>
      <point x="421" y="361" type="curve" smooth="yes"/>
      <point x="421" y="409"/>
      <point x="398" y="467"/>
      <point x="301" y="467" type="curve"/>
      <point x="196" y="467"/>
      <point x="163" y="421"/>
      <point x="163" y="264" type="curve" smooth="yes"/>
      <point x="163" y="117"/>
      <point x="192" y="64"/>
      <point x="309" y="64" type="curve"/>
      <point x="395" y="64"/>
      <point x="440" y="91"/>
      <point x="465" y="112" type="curve"/>
      <point x="500" y="37" type="line"/>
      <point x="461" y="12"/>
      <point x="396" y="-16"/>
      <point x="297" y="-16" type="curve"/>
      <point x="127" y="-16"/>
      <point x="60" y="65"/>
      <point x="60" y="264" type="curve" smooth="yes"/>
      <point x="60" y="454"/>
      <point x="132" y="545"/>
      <point x="307" y="545" type="curve"/>
      <point x="497" y="545"/>
      <point x="512" y="434"/>
      <point x="513" y="331" type="curve"/>
      <point x="513" y="294"/>
      <point x="509" y="250"/>
      <point x="507" y="241" type="curve"/>
      <point x="121" y="241" type="line"/>
    </contour>
  </outline>
</glyph>
<glyph name="f" format="1">
  <advance width="353"/>
  <unicode hex="0066"/>
  <outline>
    <contour>
      <point x="103" y="602" type="line"/>
      <point x="103" y="777"/>
      <point x="167" y="812"/>
      <point x="275" y="812" type="curve"/>
      <point x="343" y="812"/>
      <point x="393" y="791"/>
      <point x="404" y="780" type="curve"/>
      <point x="404" y="679" type="line"/>
      <point x="352" y="679" type="line"/>
      <point x="335" y="734" type="line"/>
      <point x="320" y="743"/>
      <point x="306" y="748"/>
      <point x="277" y="748" type="curve"/>
      <point x="216" y="748"/>
      <point x="202" y="706"/>
      <point x="202" y="595" type="curve"/>
      <point x="202" y="0" type="line"/>
      <point x="103" y="0" type="line"/>
    </contour>
    <contour>
      <point x="39" y="524" type="line"/>
      <point x="328" y="524" type="line"/>
      <point x="328" y="462" type="line"/>
      <point x="39" y="462" type="line"/>
    </contour>
    <contour>
      <point x="61" y="49" type="line"/>
      <point x="103" y="75" type="line"/>
      <point x="202" y="75" type="line"/>
      <point x="310" y="49" type="line"/>
      <point x="310" y="0" type="line"/>
      <point x="61" y="0" type="line"/>
    </contour>
  </outline>
</glyph>
<glyph name="g" format="1">
  <advance width="605"/>
  <unicode hex="0067"/>
  <outline>
    <contour>
      <point x="479" y="423" type="curve"/>
      <point x="439" y="377" type="line"/>
      <point x="420" y="406"/>
      <point x="375" y="463"/>
      <point x="272" y="463" type="curve"/>
      <point x="176" y="463"/>
      <point x="144" y="383"/>
      <point x="144" y="261" type="curve" smooth="yes"/>
      <point x="144" y="133"/>
      <point x="183" y="67"/>
      <point x="261" y="67" type="curve"/>
      <point x="378" y="67"/>
      <point x="421" y="124"/>
      <point x="453" y="180" type="curve"/>
      <point x="486" y="132" type="line"/>
      <point x="451" y="56"/>
      <point x="392" y="-15"/>
      <point x="241" y="-15" type="curve"/>
      <point x="113" y="-15"/>
      <point x="42" y="67"/>
      <point x="42" y="261" type="curve" smooth="yes"/>
      <point x="42" y="446"/>
      <point x="115" y="544"/>
      <point x="259" y="541" type="curve"/>
      <point x="409" y="544"/>
      <point x="448" y="468"/>
    </contour>
    <contour>
      <point x="516" y="9" type="line"/>
      <point x="516" y="-155"/>
      <point x="415" y="-210"/>
      <point x="289" y="-210" type="curve"/>
      <point x="176" y="-210"/>
      <point x="111" y="-179"/>
      <point x="88" y="-163" type="curve"/>
      <point x="116" y="-94" type="line"/>
      <point x="150" y="-114"/>
      <point x="200" y="-132"/>
      <point x="272" y="-132" type="curve"/>
      <point x="383" y="-132"/>
      <point x="417" y="-91"/>
      <point x="417" y="14" type="curve"/>
      <point x="417" y="458" type="line"/>
      <point x="446" y="525" type="line"/>
      <point x="516" y="525" type="line"/>
    </contour>
    <contour>
      <point x="505" y="439" type="line"/>
      <point x="455" y="525" type="line"/>
      <point x="569" y="525" type="line"/>
      <point x="569" y="474" type="line"/>
    </contour>
  </outline>
</glyph>
<glyph name="h" format="1">
  <advance width="663"/>
  <unicode hex="0068"/>
  <outline>
    <contour>
      <point x="468" y="299" type="line" smooth="yes"/>
      <point x="468" y="424"/>
      <point x="443" y="454"/>
      <point x="389" y="454" type="curve"/>
      <point x="283" y="454"/>
      <point x="216" y="337"/>
      <point x="202" y="287" type="curve"/>
      <point x="202" y="0" type="line"/>
      <point x="103" y="0" type="line"/>
      <point x="103" y="714" type="line"/>
      <point x="22" y="749" type="line"/>
      <point x="22" y="800" type="line"/>
      <point x="197" y="800" type="line"/>
      <point x="197" y="368" type="line"/>
      <point x="171" y="362" type="line"/>
      <point x="188" y="416"/>
      <point x="248" y="538"/>
      <point x="409" y="538" type="curve"/>
      <point x="531" y="538"/>
      <point x="568" y="475"/>
      <point x="568" y="340" type="curve"/>
      <point x="568" y="0" type="line"/>
      <point x="468" y="0" type="line"/>
    </contour>
    <component base="serif-alpha" xOffset="19"/>
    <component base="serif-omega" xOffset="306"/>
  </outline>
</glyph>
<glyph name="i" format="1">
  <advance width="317"/>
  <unicode hex="0069"/>
  <outline>
    <contour>
      <point x="206" y="1" type="line" smooth="yes"/>
      <point x="107" y="1" type="line"/>
      <point x="107" y="525" type="line"/>
      <point x="206" y="525" type="line"/>
    </contour>
    <contour>
      <point x="147" y="793" type="curve" smooth="yes"/>
      <point x="201" y="793"/>
      <point x="208" y="781"/>
      <point x="208" y="716" type="curve" smooth="yes"/>
      <point x="208" y="651"/>
      <point x="201" y="637"/>
      <point x="147" y="637" type="curve" smooth="yes"/>
      <point x="92" y="637"/>
      <point x="86" y="651"/>
      <point x="86" y="716" type="curve" smooth="yes"/>
      <point x="86" y="781"/>
      <point x="92" y="793"/>
    </contour>
    <component base="serif-omega" xOffset="-55"/>
    <component base="serif-top" xOffset="22"/>
  </outline>
</glyph>
<glyph name="j" format="1">
  <advance width="293"/>
  <unicode hex="006A"/>
  <outline>
    <contour>
      <point x="193" y="9" type="line"/>
      <point x="193" y="-96"/>
      <point x="77" y="-188"/>
      <point x="12" y="-202" type="curve"/>
      <point x="-15" y="-138" type="line"/>
      <point x="33" y="-116"/>
      <point x="97" y="-51"/>
      <point x="97" y="20" type="curve"/>
      <point x="97" y="438" type="line"/>
      <point x="30" y="479" type="line"/>
      <point x="30" y="525" type="line"/>
      <point x="193" y="525" type="line"/>
    </contour>
    <contour>
      <point x="82" y="800" type="line"/>
      <point x="173" y="800" type="line"/>
      <point x="189" y="777" type="line"/>
      <point x="189" y="663" type="line"/>
      <point x="173" y="639" type="line"/>
      <point x="82" y="639" type="line"/>
      <point x="67" y="663" type="line"/>
      <point x="67" y="777" type="line"/>
    </contour>
  </outline>
</glyph>
<glyph name="k" format="1">
  <advance width="583"/>
  <unicode hex="006B"/>
  <outline>
    <contour>
      <point x="188" y="1" type="line" smooth="yes"/>
      <point x="89" y="1" type="line"/>
      <point x="89" y="800" type="line"/>
      <point x="188" y="800" type="line"/>
    </contour>
    <contour>
      <point x="567" y="0" type="line"/>
      <point x="433" y="0" type="line"/>
      <point x="254" y="301" type="line"/>
      <point x="325" y="348" type="line"/>
      <point x="499" y="75" type="line"/>
      <point x="567" y="50" type="line"/>
    </contour>
    <contour>
      <point x="173" y="164" type="line"/>
      <point x="155" y="249" type="line"/>
      <point x="388" y="486" type="line"/>
      <point x="480" y="481" type="line"/>
    </contour>
    <contour>
      <point x="327" y="476" type="line"/>
      <point x="327" y="525" type="line"/>
      <point x="520" y="525" type="line"/>
      <point x="520" y="476" type="line"/>
      <point x="445" y="450" type="line"/>
      <point x="368" y="468" type="line"/>
    </contour>
    <component base="serif-omega" xOffset="-73"/>
    <component base="serif-top" xOffset="3" yOffset="275"/>
  </outline>
</glyph>
<glyph name="l" format="1">
  <advance width="296"/>
  <unicode hex="006C"/>
  <outline>
    <contour>
      <point x="193" y="1" type="line" smooth="yes"/>
      <point x="94" y="1" type="line"/>
      <point x="94" y="800" type="line"/>
      <point x="193" y="800" type="line"/>
    </contour>
    <component base="serif-omega" xOffset="-68"/>
    <component base="serif-top" xOffset="8" yOffset="274"/>
  </outline>
</glyph>
<glyph name="m" format="1">
  <advance width="991"/>
  <unicode hex="006D"/>
  <outline>
    <contour>
      <point x="41" y="49" type="line"/>
      <point x="121" y="98" type="line"/>
      <point x="282" y="49" type="line"/>
      <point x="282" y="0" type="line"/>
      <point x="41" y="0" type="line"/>
    </contour>
    <contour>
      <point x="398" y="49" type="line"/>
      <point x="478" y="97" type="line"/>
      <point x="635" y="49" type="line"/>
      <point x="635" y="0" type="line"/>
      <point x="398" y="0" type="line"/>
    </contour>
    <contour>
      <point x="496" y="374" type="line"/>
      <point x="496" y="442"/>
      <point x="564" y="538"/>
      <point x="707" y="538" type="curve"/>
      <point x="844" y="538"/>
      <point x="899" y="483"/>
      <point x="899" y="338" type="curve"/>
      <point x="899" y="0" type="line"/>
      <point x="799" y="0" type="line"/>
      <point x="799" y="306" type="line" smooth="yes"/>
      <point x="799" y="411"/>
      <point x="775" y="457"/>
      <point x="689" y="457" type="curve"/>
      <point x="593" y="457"/>
      <point x="558" y="369"/>
      <point x="541" y="295" type="curve"/>
      <point x="541" y="0" type="line"/>
      <point x="441" y="0" type="line"/>
      <point x="441" y="305" type="line" smooth="yes"/>
      <point x="441" y="412"/>
      <point x="415" y="457"/>
      <point x="330" y="457" type="curve"/>
      <point x="238" y="457"/>
      <point x="199" y="368"/>
      <point x="182" y="295" type="curve"/>
      <point x="182" y="0" type="line"/>
      <point x="83" y="0" type="line"/>
      <point x="83" y="439" type="line"/>
      <point x="12" y="474" type="line"/>
      <point x="12" y="525" type="line"/>
      <point x="157" y="525" type="line"/>
      <point x="164" y="383" type="line"/>
      <point x="147" y="377" type="line"/>
      <point x="147" y="445"/>
      <point x="213" y="538"/>
      <point x="348" y="538" type="curve"/>
      <point x="466" y="538"/>
      <point x="528" y="488"/>
      <point x="528" y="339" type="curve"/>
    </contour>
    <contour>
      <point x="756" y="49" type="line"/>
      <point x="836" y="97" type="line"/>
      <point x="979" y="49" type="line"/>
      <point x="979" y="0" type="line"/>
      <point x="756" y="0" type="line"/>
    </contour>
  </outline>
</glyph>
<glyph name="n" format="1">
  <advance width="656"/>
  <unicode hex="006E"/>
  <outline>
    <contour>
      <point x="185" y="525" type="line"/>
      <point x="185" y="412" type="line"/>
      <point x="168" y="406" type="line"/>
      <point x="178" y="462"/>
      <point x="247" y="535"/>
      <point x="375" y="535" type="curve"/>
      <point x="521" y="535"/>
      <point x="556" y="475"/>
      <point x="556" y="332" type="curve"/>
      <point x="556" y="2" type="line"/>
      <point x="457" y="2" type="line"/>
      <point x="457" y="304" type="line" smooth="yes"/>
      <point x="457" y="429"/>
      <point x="439" y="456"/>
      <point x="356" y="456" type="curve"/>
      <point x="282" y="456"/>
      <point x="226" y="408"/>
      <point x="203" y="341" type="curve"/>
      <point x="203" y="2" type="line" smooth="yes"/>
      <point x="104" y="2" type="line"/>
      <point x="104" y="525" type="line"/>
    </contour>
    <component base="component01" xOffset="78" yOffset="-96"/>
    <component base="serif-alpha" xOffset="21"/>
    <component base="serif-omega" xOffset="295"/>
    <component base="serif-top" xOffset="18"/>
  </outline>
</glyph>
<glyph name="o" format="1">
  <advance width="598"/>
  <unicode hex="006F"/>
  <outline>
    <contour>
      <point x="300" y="545" type="curve" smooth="yes"/>
      <point x="484" y="545"/>
      <point x="551" y="444"/>
      <point x="551" y="264" type="curve" smooth="yes"/>
      <point x="551" y="84"/>
      <point x="482" y="-16"/>
      <point x="300" y="-16" type="curve" smooth="yes"/>
      <point x="118" y="-16"/>
      <point x="47" y="84"/>
      <point x="47" y="264" type="curve" smooth="yes"/>
      <point x="47" y="444"/>
      <point x="116" y="545"/>
    </contour>
    <contour>
      <point x="150" y="264" type="curve" smooth="yes"/>
      <point x="150" y="137"/>
      <point x="187" y="64"/>
      <point x="300" y="64" type="curve" smooth="yes"/>
      <point x="413" y="64"/>
      <point x="447" y="136"/>
      <point x="447" y="264" type="curve" smooth="yes"/>
      <point x="447" y="392"/>
      <point x="421" y="467"/>
      <point x="300" y="467" type="curve" smooth="yes"/>
      <point x="179" y="467"/>
      <point x="150" y="391"/>
    </contour>
  </outline>
</glyph>
<glyph name="p" format="1">
  <advance width="621"/>
  <unicode hex="0070"/>
  <outline>
    <contour>
      <point x="188" y="-199" type="line" smooth="yes"/>
      <point x="92" y="-199" type="line"/>
      <point x="92" y="438" type="line"/>
      <point x="24" y="479" type="line"/>
      <point x="24" y="525" type="line"/>
      <point x="174" y="525" type="line"/>
      <point x="188" y="412" type="line"/>
    </contour>
    <contour>
      <point x="50" y="-151" type="line"/>
      <point x="130" y="-102" type="line"/>
      <point x="279" y="-151" type="line"/>
      <point x="279" y="-200" type="line"/>
      <point x="50" y="-200" type="line"/>
    </contour>
    <contour>
      <point x="136" y="74" type="curve"/>
      <point x="176" y="120" type="line"/>
      <point x="196" y="99"/>
      <point x="243" y="65"/>
      <point x="341" y="65" type="curve"/>
      <point x="442" y="65"/>
      <point x="462" y="156"/>
      <point x="462" y="278" type="curve"/>
      <point x="462" y="409"/>
      <point x="431" y="461"/>
      <point x="350" y="461" type="curve"/>
      <point x="252" y="461"/>
      <point x="196" y="385"/>
      <point x="163" y="331" type="curve"/>
      <point x="130" y="379" type="line"/>
      <point x="170" y="440"/>
      <point x="229" y="542"/>
      <point x="371" y="542" type="curve"/>
      <point x="508" y="542"/>
      <point x="565" y="472"/>
      <point x="565" y="278" type="curve" smooth="yes"/>
      <point x="565" y="93"/>
      <point x="503" y="-13"/>
      <point x="356" y="-13" type="curve"/>
      <point x="209" y="-13"/>
      <point x="171" y="36"/>
    </contour>
  </outline>
</glyph>
<glyph name="q" format="1">
  <advance width="607"/>
  <unicode hex="0071"/>
  <outline>
    <contour>
      <point x="419" y="-199" type="line" smooth="yes"/>
      <point x="419" y="412" type="line"/>
      <point x="433" y="525" type="line"/>
      <point x="583" y="525" type="line"/>
      <point x="583" y="479" type="line"/>
      <point x="515" y="438" type="line"/>
      <point x="515" y="-199" type="line"/>
    </contour>
    <contour>
      <point x="485" y="403" type="curve"/>
      <point x="444" y="355" type="line"/>
      <point x="422" y="384"/>
      <point x="369" y="466"/>
      <point x="271" y="465" type="curve"/>
      <point x="170" y="466"/>
      <point x="153" y="373"/>
      <point x="153" y="267" type="curve" smooth="yes"/>
      <point x="153" y="139"/>
      <point x="174" y="66"/>
      <point x="259" y="66" type="curve"/>
      <point x="353" y="66"/>
      <point x="408" y="122"/>
      <point x="445" y="176" type="curve"/>
      <point x="478" y="128" type="line"/>
      <point x="442" y="75"/>
      <point x="383" y="-16"/>
      <point x="244" y="-16" type="curve"/>
      <point x="104" y="-16"/>
      <point x="50" y="73"/>
      <point x="50" y="267" type="curve" smooth="yes"/>
      <point x="50" y="434"/>
      <point x="101" y="543"/>
      <point x="256" y="543" type="curve"/>
      <point x="397" y="543"/>
      <point x="460" y="433"/>
    </contour>
    <component base="serif-omega" xOffset="254" yOffset="-200"/>
  </outline>
</glyph>
<glyph name="r" format="1">
  <advance width="474"/>
  <unicode hex="0072"/>
  <outline>
    <contour>
      <point x="177" y="525" type="line"/>
      <point x="177" y="400" type="line"/>
      <point x="160" y="394" type="line"/>
      <point x="187" y="463"/>
      <point x="277" y="535"/>
      <point x="374" y="535" type="curve"/>
      <point x="428" y="535"/>
      <point x="460" y="528"/>
      <point x="468" y="517" type="curve"/>
      <point x="449" y="373" type="line"/>
      <point x="389" y="373" type="line"/>
      <point x="363" y="453" type="line"/>
      <point x="298" y="453"/>
      <point x="216" y="378"/>
      <point x="195" y="318" type="curve"/>
      <point x="195" y="2" type="line" smooth="yes"/>
      <point x="96" y="2" type="line"/>
      <point x="96" y="525" type="line"/>
    </contour>
    <component base="serif-top" xOffset="12"/>
    <component base="serif-alpha" xOffset="13"/>
  </outline>
</glyph>
<glyph name="s" format="1">
  <advance width="536"/>
  <unicode hex="0073"/>
  <outline>
    <contour>
      <point x="300" y="311" type="curve" smooth="yes"/>
      <point x="201" y="333"/>
      <point x="162" y="344"/>
      <point x="162" y="399" type="curve"/>
      <point x="162" y="451"/>
      <point x="197" y="474"/>
      <point x="271" y="474" type="curve"/>
      <point x="328" y="474"/>
      <point x="366" y="461"/>
      <point x="374" y="451" type="curve"/>
      <point x="398" y="390" type="line"/>
      <point x="456" y="390" type="line"/>
      <point x="456" y="504" type="line"/>
      <point x="451" y="513"/>
      <point x="395" y="551"/>
      <point x="273" y="551" type="curve"/>
      <point x="138" y="551"/>
      <point x="68" y="498"/>
      <point x="68" y="395" type="curve"/>
      <point x="68" y="291"/>
      <point x="124" y="256"/>
      <point x="239" y="232" type="curve" smooth="yes"/>
      <point x="333" y="212"/>
      <point x="388" y="196"/>
      <point x="388" y="140" type="curve"/>
      <point x="388" y="75"/>
      <point x="342" y="68"/>
      <point x="269" y="68" type="curve"/>
      <point x="199" y="68"/>
      <point x="155" y="97"/>
      <point x="152" y="102" type="curve"/>
      <point x="128" y="176" type="line"/>
      <point x="68" y="176" type="line"/>
      <point x="68" y="53" type="line"/>
      <point x="76" y="46"/>
      <point x="136" y="-14"/>
      <point x="275" y="-15" type="curve"/>
      <point x="406" y="-14"/>
      <point x="482" y="28"/>
      <point x="482" y="148" type="curve"/>
      <point x="482" y="275"/>
      <point x="417" y="285"/>
    </contour>
  </outline>
</glyph>
<glyph name="t" format="1">
  <advance width="362"/>
  <unicode hex="0074"/>
  <outline>
    <contour>
      <point x="70" y="185" type="curve"/>
      <point x="70" y="525" type="line"/>
      <point x="103" y="606" type="line"/>
      <point x="166" y="606" type="line"/>
      <point x="166" y="196" type="line"/>
      <point x="166" y="109"/>
      <point x="173" y="59"/>
      <point x="254" y="59" type="curve"/>
      <point x="288" y="59"/>
      <point x="311" y="69"/>
      <point x="328" y="78" type="curve"/>
      <point x="347" y="20" type="line"/>
      <point x="330" y="6"/>
      <point x="286" y="-13"/>
      <point x="221" y="-13" type="curve"/>
      <point x="110" y="-13"/>
      <point x="70" y="39"/>
    </contour>
    <contour>
      <point x="26" y="525" type="line"/>
      <point x="318" y="525" type="line"/>
      <point x="318" y="455" type="line"/>
      <point x="26" y="455" type="line"/>
    </contour>
  </outline>
</glyph>
<glyph name="u" format="1">
  <advance width="658"/>
  <unicode hex="0075"/>
  <outline>
    <contour>
      <point x="202" y="235" type="line" smooth="yes"/>
      <point x="202" y="110"/>
      <point x="219" y="68"/>
      <point x="296" y="68" type="curve"/>
      <point x="386" y="68"/>
      <point x="430" y="149"/>
      <point x="451" y="221" type="curve"/>
      <point x="451" y="525" type="line"/>
      <point x="550" y="525" type="line"/>
      <point x="550" y="82" type="line"/>
      <point x="624" y="47" type="line"/>
      <point x="624" y="0" type="line"/>
      <point x="467" y="0" type="line"/>
      <point x="469" y="142" type="line"/>
      <point x="486" y="143" type="line"/>
      <point x="469" y="75"/>
      <point x="404" y="-13"/>
      <point x="264" y="-13" type="curve"/>
      <point x="135" y="-13"/>
      <point x="102" y="46"/>
      <point x="102" y="196" type="curve"/>
      <point x="102" y="525" type="line"/>
      <point x="202" y="525" type="line"/>
    </contour>
    <contour>
      <point x="542" y="476" type="line"/>
      <point x="512" y="425" type="line"/>
      <point x="368" y="472" type="line"/>
      <point x="368" y="525" type="line"/>
      <point x="542" y="525" type="line"/>
    </contour>
    <contour>
      <point x="188" y="476" type="line"/>
      <point x="165" y="426" type="line"/>
      <point x="34" y="472" type="line"/>
      <point x="34" y="525" type="line"/>
      <point x="188" y="525" type="line"/>
    </contour>
  </outline>
</glyph>
<glyph name="v" format="1">
  <advance width="588"/>
  <unicode hex="0076"/>
  <outline>
    <contour>
      <point x="145" y="502" type="line" smooth="yes"/>
      <point x="283" y="146" type="line"/>
      <point x="303" y="62" type="line"/>
      <point x="283" y="58" type="line"/>
      <point x="310" y="148" type="line"/>
      <point x="442" y="493" type="line"/>
      <point x="539" y="494" type="line" smooth="yes"/>
      <point x="336" y="0" type="line"/>
      <point x="236" y="0" type="line"/>
      <point x="49" y="489" type="line"/>
    </contour>
    <contour>
      <point x="216" y="476" type="line"/>
      <point x="164" y="450" type="line"/>
      <point x="65" y="450" type="line"/>
      <point x="0" y="476" type="line"/>
      <point x="0" y="525" type="line"/>
      <point x="216" y="525" type="line"/>
    </contour>
    <contour>
      <point x="372" y="476" type="line"/>
      <point x="372" y="525" type="line"/>
      <point x="588" y="525" type="line"/>
      <point x="588" y="476" type="line"/>
      <point x="518" y="450" type="line"/>
      <point x="424" y="450" type="line"/>
    </contour>
  </outline>
</glyph>
<glyph name="w" format="1">
  <advance width="894"/>
  <unicode hex="0077"/>
  <outline>
    <contour>
      <point x="145" y="502" type="line" smooth="yes"/>
      <point x="243" y="146" type="line"/>
      <point x="263" y="62" type="line"/>
      <point x="243" y="58" type="line"/>
      <point x="267" y="146" type="line"/>
      <point x="395" y="525" type="line"/>
      <point x="492" y="525" type="line" smooth="yes"/>
      <point x="299" y="0" type="line"/>
      <point x="196" y="0" type="line"/>
      <point x="49" y="489" type="line"/>
    </contour>
    <contour>
      <point x="216" y="476" type="line"/>
      <point x="164" y="450" type="line"/>
      <point x="65" y="450" type="line"/>
      <point x="0" y="476" type="line"/>
      <point x="0" y="525" type="line"/>
      <point x="216" y="525" type="line"/>
    </contour>
    <contour>
      <point x="678" y="476" type="line"/>
      <point x="678" y="525" type="line"/>
      <point x="894" y="525" type="line"/>
      <point x="894" y="476" type="line"/>
      <point x="824" y="450" type="line"/>
      <point x="730" y="450" type="line"/>
    </contour>
    <contour>
      <point x="492" y="525" type="line" smooth="yes"/>
      <point x="619" y="146" type="line"/>
      <point x="639" y="62" type="line"/>
      <point x="619" y="58" type="line"/>
      <point x="645" y="147" type="line"/>
      <point x="748" y="493" type="line"/>
      <point x="845" y="494" type="line" smooth="yes"/>
      <point x="675" y="0" type="line"/>
      <point x="572" y="0" type="line"/>
      <point x="396" y="525" type="line"/>
    </contour>
  </outline>
</glyph>
<glyph name="x" format="1">
  <advance width="575"/>
  <unicode hex="0078"/>
  <outline>
    <contour>
      <point x="230" y="476" type="line"/>
      <point x="192" y="450" type="line"/>
      <point x="80" y="450" type="line"/>
      <point x="14" y="476" type="line"/>
      <point x="14" y="525" type="line"/>
      <point x="230" y="525" type="line"/>
    </contour>
    <contour>
      <point x="344" y="476" type="line"/>
      <point x="344" y="525" type="line"/>
      <point x="560" y="525" type="line"/>
      <point x="560" y="476" type="line"/>
      <point x="483" y="450" type="line"/>
      <point x="384" y="450" type="line"/>
    </contour>
    <contour>
      <point x="344" y="49" type="line"/>
      <point x="388" y="75" type="line"/>
      <point x="499" y="75" type="line"/>
      <point x="565" y="49" type="line"/>
      <point x="565" y="0" type="line"/>
      <point x="344" y="0" type="line"/>
    </contour>
    <contour>
      <point x="226" y="49" type="line"/>
      <point x="226" y="0" type="line"/>
      <point x="10" y="0" type="line"/>
      <point x="10" y="49" type="line"/>
      <point x="79" y="75" type="line"/>
      <point x="177" y="75" type="line"/>
    </contour>
    <contour>
      <point x="433" y="23" type="line"/>
      <point x="248" y="252" type="line"/>
      <point x="297" y="244" type="line"/>
      <point x="146" y="32" type="line"/>
      <point x="44" y="31" type="line" smooth="yes"/>
      <point x="235" y="295" type="line"/>
      <point x="235" y="256" type="line"/>
      <point x="53" y="482" type="line"/>
      <point x="149" y="502" type="line"/>
      <point x="316" y="291" type="line"/>
      <point x="269" y="294" type="line"/>
      <point x="417" y="493" type="line"/>
      <point x="517" y="494" type="line" smooth="yes"/>
      <point x="333" y="247" type="line"/>
      <point x="323" y="292" type="line"/>
      <point x="533" y="36" type="line"/>
    </contour>
  </outline>
</glyph>
<glyph name="y" format="1">
  <advance width="620"/>
  <unicode hex="0079"/>
  <outline>
    <contour>
      <point x="232" y="476" type="line"/>
      <point x="180" y="450" type="line"/>
      <point x="81" y="450" type="line"/>
      <point x="16" y="476" type="line"/>
      <point x="16" y="525" type="line"/>
      <point x="232" y="525" type="line"/>
    </contour>
    <contour>
      <point x="388" y="476" type="line"/>
      <point x="388" y="525" type="line"/>
      <point x="604" y="525" type="line"/>
      <point x="604" y="476" type="line"/>
      <point x="534" y="450" type="line"/>
      <point x="440" y="450" type="line"/>
    </contour>
    <contour>
      <point x="352" y="0" type="line" smooth="yes"/>
      <point x="296" y="-136"/>
      <point x="256" y="-200"/>
      <point x="71" y="-200" type="curve"/>
      <point x="71" y="-129" type="line"/>
      <point x="200" y="-129"/>
      <point x="227" y="-75"/>
      <point x="252" y="0" type="curve"/>
      <point x="65" y="489" type="line"/>
      <point x="161" y="502" type="line" smooth="yes"/>
      <point x="299" y="146" type="line"/>
      <point x="319" y="62" type="line"/>
      <point x="299" y="58" type="line"/>
      <point x="326" y="148" type="line"/>
      <point x="458" y="493" type="line"/>
      <point x="555" y="494" type="line" smooth="yes"/>
    </contour>
  </outline>
</glyph>
<glyph name="z" format="1">
  <advance width="502"/>
  <unicode hex="007A"/>
  <outline>
    <contour>
      <point x="381" y="80" type="line"/>
      <point x="402" y="148" type="line"/>
      <point x="460" y="148" type="line"/>
      <point x="458" y="0" type="line"/>
      <point x="61" y="0" type="line"/>
      <point x="40" y="68" type="line"/>
      <point x="353" y="456" type="line"/>
      <point x="366" y="445" type="line"/>
      <point x="145" y="445" type="line"/>
      <point x="118" y="381" type="line"/>
      <point x="62" y="381" type="line"/>
      <point x="62" y="525" type="line"/>
      <point x="441" y="525" type="line"/>
      <point x="462" y="455" type="line"/>
      <point x="153" y="64" type="line"/>
      <point x="155" y="80" type="line"/>
    </contour>
  </outline>
</glyph>
<glyph name="bowl-large" format="1">
  <advance width="500"/>
  <outline>
    <contour>
      <point x="30" y="117" type="curve"/>
      <point x="70" y="163" type="line"/>
      <point x="86" y="129"/>
      <point x="133" y="71"/>
      <point x="231" y="71" type="curve"/>
      <point x="332" y="71"/>
      <point x="349" y="156"/>
      <point x="349" y="278" type="curve" smooth="yes"/>
      <point x="349" y="406"/>
      <point x="328" y="456"/>
      <point x="261" y="456" type="curve"/>
      <point x="149" y="456"/>
      <point x="101" y="342"/>
      <point x="68" y="288" type="curve"/>
      <point x="35" y="336" type="line"/>
      <point x="70" y="412"/>
      <point x="113" y="543"/>
      <point x="270" y="543" type="curve"/>
      <point x="398" y="543"/>
      <point x="452" y="472"/>
      <point x="452" y="278" type="curve" smooth="yes"/>
      <point x="452" y="93"/>
      <point x="393" y="-16"/>
      <point x="246" y="-16" type="curve"/>
      <point x="99" y="-16"/>
      <point x="58" y="69"/>
    </contour>
  </outline>
</glyph>
<glyph name="serif-alpha" format="1">
  <advance width="500"/>
  <outline>
    <contour>
      <point x="41" y="49" type="line"/>
      <point x="83" y="75" type="line"/>
      <point x="182" y="75" type="line"/>
      <point x="282" y="49" type="line"/>
      <point x="282" y="0" type="line"/>
      <point x="41" y="0" type="line"/>
    </contour>
  </outline>
</glyph>
<glyph name="serif-even" format="1">
  <advance width="500"/>
  <outline>
    <contour>
      <point x="290" y="663" type="line"/>
      <point x="367" y="698" type="line"/>
      <point x="367" y="749" type="line"/>
      <point x="115" y="749" type="line"/>
      <point x="115" y="698" type="line"/>
      <point x="192" y="663" type="line"/>
    </contour>
  </outline>
</glyph>
<glyph name="serif-omega" format="1">
  <advance width="500"/>
  <outline>
    <contour>
      <point x="115" y="49" type="line"/>
      <point x="162" y="75" type="line"/>
      <point x="261" y="75" type="line"/>
      <point x="337" y="49" type="line"/>
      <point x="337" y="0" type="line"/>
      <point x="115" y="0" type="line"/>
    </contour>
  </outline>
</glyph>
<glyph name="serif-top" format="1">
  <advance width="500"/>
  <outline>
    <contour>
      <point x="86" y="439" type="line"/>
      <point x="15" y="474" type="line"/>
      <point x="15" y="525" type="line"/>
      <point x="167" y="525" type="line"/>
    </contour>
  </outline>
</glyph>
